<svg width="2000" height="2000" viewBox="0 0 2000 2000" fill="none" xmlns="http://www.w3.org/2000/svg">
<path d="M1586 0H414C185.354 0 0 185.354 0 414V1586C0 1814.65 185.354 2000 414 2000H1586C1814.65 2000 2000 1814.65 2000 1586V414C2000 185.354 1814.65 0 1586 0Z" fill="black"/>
<path d="M1586 0H414C185.354 0 0 185.354 0 414V1586C0 1814.65 185.354 2000 414 2000H1586C1814.65 2000 2000 1814.65 2000 1586V414C2000 185.354 1814.65 0 1586 0Z" fill="black"/>
<path d="M1027.51 485.002C1028.22 485.566 1029.06 486.202 1029.63 487.026C1043.63 509.536 1058.03 531.931 1071.76 554.629C1098.02 597.844 1116.47 644.709 1134.5 691.69C1143.22 714.502 1150.09 738.165 1156.51 761.74C1169.38 809.427 1178.28 857.804 1183.22 906.874C1187.13 944.849 1189.76 982.969 1188.92 1021.2C1187.92 1063.42 1184.05 1105.58 1177.66 1147.37C1175.14 1163.63 1172.17 1179.81 1168.73 1195.9C1164.96 1213.5 1160.8 1230.89 1156.44 1248.34C1153.29 1260.51 1149.68 1272.6 1145.73 1284.67C1141.25 1298.32 1136.51 1311.83 1131.57 1325.39C1127.97 1335.28 1124.31 1345.3 1120.25 1355.11C1116.85 1363.41 1112.85 1371.56 1109.25 1379.92C1106.25 1386.58 1103.51 1393.38 1100.51 1400.03C1099.71 1401.8 1098.72 1403.28 1097.78 1404.97C1091.56 1417.15 1085.67 1429.34 1079.32 1441.44C1075.21 1449.18 1070.76 1456.9 1066.52 1464.57C1061.7 1473.28 1056.55 1481.97 1051.34 1490.46C1046.35 1498.56 1040.83 1506.37 1035.51 1514.46C1032.8 1518.74 1030.17 1522.88 1026.74 1526.92C1027.02 1179.97 1027.18 832.949 1027.55 485.537L1027.51 485.002Z" fill="#F4F4F9"/>
<path d="M941.069 469C941.047 469.77 941.043 470.667 940.771 471.471C932.57 492.423 924.654 513.592 916.186 534.453C900.134 574.262 877.627 610.606 854.836 646.733C843.746 664.243 831.145 680.936 818.367 697.27C792.471 730.24 764.09 760.864 733.225 789.142C709.382 811.085 684.794 832.235 658.363 851.079C629.14 871.84 598.502 890.62 566.838 907.494C554.502 914.045 541.989 920.236 529.3 926.068C515.413 932.447 501.475 938.45 487.394 944.345C477.513 948.384 467.456 952.065 457.239 955.511C445.683 959.396 434.093 963.031 422.36 966.557C413.806 969.136 405.127 971.731 396.397 973.951C389.023 975.856 381.455 977.276 373.94 979.074C367.888 980.414 361.871 982.006 355.82 983.346C354.213 983.694 352.697 983.774 351.073 983.996C339.634 985.947 328.354 988.132 316.897 989.957C309.545 991.092 302.034 991.993 294.665 993.002C286.296 994.148 277.768 995.06 269.348 995.83C261.303 996.548 253.189 996.764 244.984 997.248C240.703 997.579 236.547 997.892 232.055 997.612C468.166 821.61 704.26 645.482 940.729 469.302L941.069 469Z" fill="#F4F4F9"/>
<path d="M941.026 1529.15C941.004 1528.38 941 1527.48 940.728 1526.68C932.528 1505.72 924.611 1484.55 916.143 1463.69C900.091 1423.88 877.584 1387.54 854.793 1351.41C843.703 1333.9 831.102 1317.21 818.324 1300.88C792.428 1267.91 764.047 1237.28 733.182 1209C709.339 1187.06 684.751 1165.91 658.32 1147.07C629.097 1126.31 598.459 1107.53 566.795 1090.65C554.459 1084.1 541.946 1077.91 529.257 1072.08C515.37 1065.7 501.432 1059.7 487.351 1053.8C477.47 1049.76 467.413 1046.08 457.196 1042.64C445.64 1038.75 434.05 1035.12 422.317 1031.59C413.763 1029.01 405.084 1026.41 396.354 1024.2C388.98 1022.29 381.413 1020.87 373.897 1019.07C367.845 1017.73 361.828 1016.14 355.777 1014.8C354.17 1014.45 352.654 1014.37 351.03 1014.15C339.591 1012.2 328.311 1010.01 316.854 1008.19C309.502 1007.05 301.991 1006.15 294.622 1005.14C286.253 1004 277.725 1003.09 269.305 1002.32C261.26 1001.6 253.146 1001.38 244.941 1000.9C240.66 1000.57 236.504 1000.25 232.012 1000.53C468.123 1176.54 704.217 1352.66 940.686 1528.84L941.026 1529.15Z" fill="#F4F4F9"/>
<path d="M1058.54 471.586C1058.57 472.356 1058.57 473.252 1058.84 474.057C1067.04 495.009 1074.96 516.178 1083.43 537.039C1099.48 576.848 1121.99 613.192 1144.78 649.319C1155.87 666.829 1168.47 683.522 1181.25 699.856C1207.14 732.826 1235.52 763.45 1266.39 791.728C1290.23 813.671 1314.82 834.821 1341.25 853.665C1370.47 874.426 1401.11 893.206 1432.78 910.08C1445.11 916.631 1457.62 922.822 1470.31 928.654C1484.2 935.033 1498.14 941.036 1512.22 946.93C1522.1 950.97 1532.16 954.651 1542.37 958.097C1553.93 961.982 1565.52 965.617 1577.25 969.143C1585.81 971.721 1594.49 974.317 1603.22 976.537C1610.59 978.442 1618.16 979.862 1625.67 981.659C1631.73 983 1637.74 984.592 1643.79 985.932C1645.4 986.28 1646.92 986.36 1648.54 986.582C1659.98 988.533 1671.26 990.718 1682.72 992.543C1690.07 993.678 1697.58 994.579 1704.95 995.588C1713.32 996.734 1721.84 997.646 1730.26 998.416C1738.31 999.134 1746.42 999.35 1754.63 999.834C1758.91 1000.16 1763.07 1000.48 1767.56 1000.2C1531.45 824.196 1295.35 648.068 1058.88 471.888L1058.54 471.586Z" fill="#F4F4F9"/>
<path d="M1058.59 1531.73C1058.61 1530.96 1058.61 1530.06 1058.89 1529.26C1067.09 1508.31 1075 1487.14 1083.47 1466.28C1099.52 1426.47 1122.03 1390.12 1144.82 1354C1155.91 1336.49 1168.51 1319.79 1181.29 1303.46C1207.19 1270.49 1235.57 1239.87 1266.43 1211.59C1290.27 1189.65 1314.86 1168.5 1341.29 1149.65C1370.52 1128.89 1401.15 1110.11 1432.82 1093.24C1445.15 1086.69 1457.67 1080.49 1470.36 1074.66C1484.24 1068.28 1498.18 1062.28 1512.26 1056.39C1522.14 1052.35 1532.2 1048.67 1542.42 1045.22C1553.97 1041.33 1565.56 1037.7 1577.3 1034.17C1585.85 1031.59 1594.53 1029 1603.26 1026.78C1610.63 1024.87 1618.2 1023.45 1625.72 1021.66C1631.77 1020.32 1637.79 1018.72 1643.84 1017.38C1645.44 1017.04 1646.96 1016.96 1648.58 1016.73C1660.02 1014.78 1671.3 1012.6 1682.76 1010.77C1690.11 1009.64 1697.62 1008.74 1704.99 1007.73C1713.36 1006.58 1721.89 1005.67 1730.31 1004.9C1738.35 1004.18 1746.47 1003.97 1754.67 1003.48C1758.95 1003.15 1763.11 1002.84 1767.6 1003.12C1531.49 1179.12 1295.4 1355.25 1058.93 1531.43L1058.59 1531.73Z" fill="#F4F4F9"/>
</svg>
